<svg width="36" height="68" viewBox="0 0 36 68" fill="none" xmlns="http://www.w3.org/2000/svg">
<path d="M24.3798 31.5932C24.3329 31.5283 24.2746 31.4762 24.209 31.4405C24.1434 31.4048 24.072 31.3863 23.9998 31.3863H20.9998V29.0227C20.9998 28.5526 20.8418 28.1017 20.5605 27.7692C20.2792 27.4368 19.8976 27.25 19.4998 27.25H16.4998C16.102 27.25 15.7204 27.4368 15.4391 27.7692C15.1578 28.1017 14.9998 28.5526 14.9998 29.0227V31.3863H11.9998C11.9273 31.3854 11.8555 31.403 11.7894 31.4381C11.7233 31.4732 11.6644 31.5248 11.6168 31.5895C11.5693 31.6541 11.5342 31.7302 11.514 31.8125C11.4938 31.8947 11.4889 31.9812 11.4998 32.0659L12.4398 39.2454C12.476 39.5272 12.5971 39.7841 12.7808 39.9687C12.9646 40.1533 13.1986 40.2531 13.4398 40.2499H22.5698C22.811 40.2531 23.045 40.1533 23.2288 39.9687C23.4125 39.7841 23.5336 39.5272 23.5698 39.2454L24.4998 32.0659C24.5098 31.9815 24.5043 31.8956 24.4836 31.814C24.4629 31.7324 24.4275 31.6571 24.3798 31.5932ZM15.9998 29.0227C15.9998 28.866 16.0525 28.7157 16.1462 28.6049C16.24 28.4941 16.3672 28.4318 16.4998 28.4318H19.4998C19.6324 28.4318 19.7596 28.4941 19.8534 28.6049C19.9471 28.7157 19.9998 28.866 19.9998 29.0227V31.3863H15.9998V29.0227ZM22.5698 39.0681H13.4298L12.5848 32.5682H23.4148L22.5698 39.0681Z" fill="black"/>
</svg>
